<?xml version="1.0" encoding="UTF-8"?>
<svg version="1.1" xmlns="http://www.w3.org/2000/svg" width="512" height="512">
<path d="M0 0 C1.01545898 0.19867676 2.03091797 0.39735352 3.07714844 0.60205078 C52.9758035 10.58327711 96.53871388 34.88580573 133 70 C133.7940625 70.7528125 134.588125 71.505625 135.40625 72.28125 C140.75597303 77.46114055 145.38660506 83.16405541 150 89 C151.19109375 90.48306641 151.19109375 90.48306641 152.40625 91.99609375 C176.9776499 123.13801039 193.32468106 159.51240285 201.25 198.3125 C201.40114258 199.05121338 201.55228516 199.78992676 201.70800781 200.55102539 C202.18439803 203.02841582 202.60252786 205.50866222 203 208 C203.26707764 209.67364624 203.26707764 209.67364624 203.53955078 211.38110352 C205.19998488 223.01972268 205.3987437 234.56896253 205.375 246.3125 C205.37418427 247.83293915 205.37418427 247.83293915 205.37335205 249.38409424 C205.33347417 265.58121221 204.46747801 281.12508365 201 297 C200.78037598 298.02625488 200.56075195 299.05250977 200.33447266 300.10986328 C191.83138831 338.85817193 174.61772522 375.56726438 149 406 C148.57138672 406.51739746 148.14277344 407.03479492 147.70117188 407.56787109 C137.18164284 420.2564129 126.03816903 431.86528878 113 442 C111.52660156 443.18142578 111.52660156 443.18142578 110.0234375 444.38671875 C70.29759115 476.0035908 18.37047678 496.93437939 -32.79296875 497.203125 C-33.69337387 497.21018463 -34.59377899 497.21724426 -35.52146912 497.22451782 C-72.98691069 497.45161655 -72.98691069 497.45161655 -90 494 C-91.01545898 493.80132324 -92.03091797 493.60264648 -93.07714844 493.39794922 C-142.9758035 483.41672289 -186.53871388 459.11419427 -223 424 C-223.7940625 423.2471875 -224.588125 422.494375 -225.40625 421.71875 C-230.75597303 416.53885945 -235.38660506 410.83594459 -240 405 C-240.7940625 404.01128906 -241.588125 403.02257812 -242.40625 402.00390625 C-265.32205725 372.96029611 -281.22147176 339.14314413 -289.6875 303.1875 C-289.87787842 302.39625732 -290.06825684 301.60501465 -290.2644043 300.78979492 C-294.22851721 283.10947098 -295.555362 265.38707345 -295.4375 247.3125 C-295.43445862 246.31385925 -295.43141724 245.31521851 -295.42828369 244.28631592 C-295.35621635 228.21658083 -294.43972751 212.74786814 -291 197 C-290.78037598 195.97374512 -290.56075195 194.94749023 -290.33447266 193.89013672 C-283.36781245 162.14326833 -271.07501623 131.47570558 -252 105 C-251.56606934 104.39768555 -251.13213867 103.79537109 -250.68505859 103.17480469 C-236.89375344 84.14611537 -221.64599345 66.44072684 -203 52 C-202.01902344 51.21367188 -201.03804688 50.42734375 -200.02734375 49.6171875 C-167.82849535 23.99964218 -130.2558129 7.85095605 -90 0 C-89.17274414 -0.16661133 -88.34548828 -0.33322266 -87.49316406 -0.50488281 C-59.91781494 -5.80488028 -27.50199116 -5.57960557 0 0 Z M-148 116 C-148 202.46 -148 288.92 -148 378 C-58.37456225 387.56902882 -58.37456225 387.56902882 34 356 C34.76957031 355.32324219 35.53914062 354.64648438 36.33203125 353.94921875 C50.41605831 340.82492096 57.01946679 323.15045476 57.95263672 304.22851562 C58.29453204 288.14181209 53.22257348 272.45057026 43 260 C42.41734375 259.24460937 41.8346875 258.48921875 41.234375 257.7109375 C35.75167187 251.00729628 29.168498 246.72210582 22 242 C20.65724831 241.01268258 19.31937155 240.01834989 18 239 C18.67804688 238.55011719 19.35609375 238.10023438 20.0546875 237.63671875 C34.03675912 227.97320942 45.70444597 214.30439239 49.59765625 197.33203125 C51.74540396 179.54534392 50.17944542 163.19017022 40 148 C26.20370244 130.56905633 8.87861399 120.87324745 -13 117 C-57.72599506 112.03044499 -102.99876545 116 -148 116 Z " fill="#000000" transform="translate(301,9)"/>
<path d="M0 0 C7.71375 -0.103125 15.4275 -0.20625 23.375 -0.3125 C25.78989746 -0.35802002 28.20479492 -0.40354004 30.69287109 -0.45043945 C32.63637916 -0.46506121 34.5799027 -0.47779787 36.5234375 -0.48828125 C38.00130737 -0.526651 38.00130737 -0.526651 39.5090332 -0.5657959 C47.39266944 -0.57069013 54.01480432 1.36857633 59.94491577 6.77226257 C65.5272826 12.75005207 66.52817536 18.88375592 66.37890625 26.89453125 C65.61407093 33.16302692 62.8299876 38.68783378 58.125 42.9375 C50.82341224 47.75654792 45.42865067 48.42507009 36.81640625 48.29296875 C35.87986206 48.28994751 34.94331787 48.28692627 33.97839355 48.28381348 C30.50631566 48.26821084 27.03439584 48.22632732 23.5625 48.1875 C11.8990625 48.0946875 11.8990625 48.0946875 0 48 C0 32.16 0 16.32 0 0 Z " fill="#000000" transform="translate(222,280)"/>
<path d="M0 0 C10.828125 -0.1546875 10.828125 -0.1546875 21.875 -0.3125 C25.26241455 -0.38078003 25.26241455 -0.38078003 28.71826172 -0.45043945 C30.53872194 -0.46506321 32.35919872 -0.47779939 34.1796875 -0.48828125 C35.10015869 -0.51386108 36.02062988 -0.53944092 36.96899414 -0.5657959 C44.93820183 -0.57107352 51.59244851 1.76719474 57.4375 7.3125 C61.70805448 14.65785371 63.49572183 21.78950284 61.4609375 30.23828125 C58.91391191 37.66943833 54.92212784 41.53893608 48 45 C45.10870211 45.89857342 42.52748748 46.12220542 39.50683594 46.11352539 C38.61399902 46.11340454 37.72116211 46.11328369 36.80126953 46.11315918 C35.87169434 46.10804321 34.94211914 46.10292725 33.984375 46.09765625 C33.12344238 46.09664917 32.26250977 46.09564209 31.37548828 46.09460449 C28.16697859 46.08938212 24.95848792 46.07542085 21.75 46.0625 C14.5725 46.041875 7.395 46.02125 0 46 C0 30.82 0 15.64 0 0 Z " fill="#000000" transform="translate(222,181)"/>
</svg>
